<svg version="1.1" id="Layer_1" xmlns="http://www.w3.org/2000/svg" xmlns:xlink="http://www.w3.org/1999/xlink" x="0px" y="0px"
	 width="100%" viewBox="0 0 142 78" enable-background="new 0 0 142 78" xml:space="preserve">
<path fill="#010101" opacity="1.000000" stroke="none" 
	d="
M88.000000,79.000000 
	C58.699463,79.000000 29.898930,79.000000 1.049197,79.000000 
	C1.049197,53.062450 1.049197,27.124784 1.049197,1.093559 
	C48.216953,1.093559 95.434151,1.093559 142.825684,1.093559 
	C142.825684,26.999069 142.825684,52.999420 142.825684,79.000000 
	C124.791962,79.000000 106.645981,79.000000 88.000000,79.000000 
M72.458519,49.090477 
	C72.458519,44.827026 72.458519,40.563576 72.458519,35.073204 
	C73.577927,38.285416 74.199738,40.477108 75.117645,42.536839 
	C75.597572,43.613750 76.597885,44.458748 77.363174,45.408489 
	C78.169739,44.516457 79.164803,43.729584 79.735764,42.706116 
	C80.471413,41.387459 80.867340,39.879288 81.409584,38.452740 
	C81.660912,38.515045 81.912239,38.577354 82.163567,38.639664 
	C82.163567,43.071281 82.163567,47.502903 82.163567,52.217220 
	C83.899895,51.974903 85.276672,51.782761 86.583046,51.600441 
	C86.583046,43.210941 86.583046,35.268391 86.583046,27.067554 
	C84.824394,27.067554 83.225044,27.067554 81.497589,27.067554 
	C80.237862,31.039526 78.995026,34.958248 77.493690,39.692036 
	C76.022110,34.930630 74.805359,30.993755 73.589767,27.060610 
	C71.851074,27.060610 70.244217,27.060610 68.468918,27.060610 
	C68.468918,35.411709 68.468918,43.507610 68.468918,53.369900 
	C70.425186,51.705952 71.439217,50.843437 72.458519,49.090477 
M60.348270,51.706932 
	C61.892376,51.802284 63.436481,51.897633 64.950409,51.991119 
	C64.950409,43.282402 64.950409,35.200493 64.950409,26.813936 
	C63.450600,26.975628 62.257977,27.104202 60.697693,27.272413 
	C60.697693,32.757874 60.697693,37.889000 60.697693,44.115162 
	C58.221367,38.857246 56.069595,34.749832 54.343990,30.470568 
	C53.086693,27.352648 51.423805,25.929773 47.972015,27.342640 
	C47.972015,35.470459 47.972015,43.553387 47.972015,52.030464 
	C49.421703,51.963661 50.632759,51.907856 51.969227,51.846272 
	C51.969227,46.114223 51.969227,40.719013 51.969227,34.127064 
	C54.927670,40.387066 57.433098,45.688496 60.348270,51.706932 
M106.239662,27.109131 
	C106.095734,26.304792 105.951805,25.500454 105.807884,24.696115 
	C104.643761,25.307716 102.787674,25.646000 102.421593,26.572821 
	C98.358597,36.859039 94.526360,47.236412 90.631790,57.589157 
	C91.112000,57.977474 91.592216,58.365791 92.072433,58.754108 
	C93.341049,57.429890 95.156158,56.324287 95.787834,54.745266 
	C99.355515,45.826923 102.639236,36.794979 106.239662,27.109131 
M38.344799,30.947388 
	C35.569511,32.773830 32.556915,34.340652 30.135344,36.554073 
	C29.162125,37.443642 28.704370,40.750397 29.346668,41.253681 
	C33.546719,44.544682 38.112667,47.368710 43.398174,50.907082 
	C43.148537,43.028725 35.882286,43.394745 33.419003,39.426094 
	C35.599056,35.020000 43.476521,35.586853 43.158504,27.835699 
	C41.343700,29.013643 40.142738,29.793158 38.344799,30.947388 
z"/>
<path fill="#DFDEDB" opacity="1.000000" stroke="none" 
	d="
M72.455887,49.535698 
	C71.439217,50.843437 70.425186,51.705952 68.468918,53.369900 
	C68.468918,43.507610 68.468918,35.411709 68.468918,27.060610 
	C70.244217,27.060610 71.851074,27.060610 73.589767,27.060610 
	C74.805359,30.993755 76.022110,34.930630 77.493690,39.692036 
	C78.995026,34.958248 80.237862,31.039526 81.497589,27.067554 
	C83.225044,27.067554 84.824394,27.067554 86.583046,27.067554 
	C86.583046,35.268391 86.583046,43.210941 86.583046,51.600441 
	C85.276672,51.782761 83.899895,51.974903 82.163567,52.217220 
	C82.163567,47.502903 82.163567,43.071281 82.163567,38.639664 
	C81.912239,38.577354 81.660912,38.515045 81.409584,38.452740 
	C80.867340,39.879288 80.471413,41.387459 79.735764,42.706116 
	C79.164803,43.729584 78.169739,44.516457 77.363174,45.408489 
	C76.597885,44.458748 75.597572,43.613750 75.117645,42.536839 
	C74.199738,40.477108 73.577927,38.285416 72.458519,35.073204 
	C72.458519,40.563576 72.458519,44.827026 72.455887,49.535698 
z"/>
<path fill="#F0F0EC" opacity="1.000000" stroke="none" 
	d="
M60.143398,51.348427 
	C57.433098,45.688496 54.927670,40.387066 51.969227,34.127064 
	C51.969227,40.719013 51.969227,46.114223 51.969227,51.846272 
	C50.632759,51.907856 49.421703,51.963661 47.972015,52.030464 
	C47.972015,43.553387 47.972015,35.470459 47.972015,27.342640 
	C51.423805,25.929773 53.086693,27.352648 54.343990,30.470568 
	C56.069595,34.749832 58.221367,38.857246 60.697693,44.115162 
	C60.697693,37.889000 60.697693,32.757874 60.697693,27.272413 
	C62.257977,27.104202 63.450600,26.975628 64.950409,26.813936 
	C64.950409,35.200493 64.950409,43.282402 64.950409,51.991119 
	C63.436481,51.897633 61.892376,51.802284 60.143398,51.348427 
z"/>
<path fill="#E96464" opacity="1.000000" stroke="none" 
	d="
M106.129684,27.455437 
	C102.639236,36.794979 99.355515,45.826923 95.787834,54.745266 
	C95.156158,56.324287 93.341049,57.429890 92.072433,58.754108 
	C91.592216,58.365791 91.112000,57.977474 90.631790,57.589157 
	C94.526360,47.236412 98.358597,36.859039 102.421593,26.572821 
	C102.787674,25.646000 104.643761,25.307716 105.807877,24.696115 
	C105.951805,25.500454 106.095734,26.304792 106.129684,27.455437 
z"/>
<path fill="#E76363" opacity="1.000000" stroke="none" 
	d="
M38.643288,30.760029 
	C40.142738,29.793158 41.343700,29.013643 43.158504,27.835699 
	C43.476521,35.586853 35.599056,35.020000 33.419003,39.426094 
	C35.882286,43.394745 43.148537,43.028725 43.398174,50.907082 
	C38.112667,47.368710 33.546719,44.544682 29.346668,41.253681 
	C28.704370,40.750397 29.162125,37.443642 30.135344,36.554073 
	C32.556915,34.340652 35.569511,32.773830 38.643288,30.760029 
z"/>
</svg>